<svg width="500" height="487" viewBox="0 0 500 487" fill="none" xmlns="http://www.w3.org/2000/svg">
<path d="M249.671 28.9093C182.435 29.1283 135.458 50.3723 108.739 92.6413C82.0193 134.691 68.6597 185.283 68.6597 244.415C68.6597 303.767 85.4139 354.468 118.922 396.518C152.431 438.349 196.014 459.483 249.671 459.921H251.314C303.657 459.921 346.693 437.582 380.421 392.904C413.71 348.664 430.355 299.825 430.355 246.386V244.415C429.917 189.882 415.681 140.385 387.648 95.9264C359.615 51.2484 313.622 28.9093 249.671 28.9093ZM249.671 0H252.957C323.697 0 383.377 21.682 431.997 65.046C477.332 105.563 500 159.001 500 225.361C500 231.275 499.781 237.297 499.343 243.43C494.744 318.769 468.572 377.245 420.828 418.857C373.303 460.25 316.032 482.808 249.014 486.531C243.977 486.75 238.94 486.859 233.903 486.859C173.018 486.859 119.141 465.834 72.2733 423.784C24.0911 380.859 0 324.682 0 255.256C0 251.314 0.109505 247.372 0.328515 243.43C2.95664 168.747 27.0477 109.724 72.6018 66.3601C118.375 22.9961 177.398 0.87604 249.671 0Z" fill="#E6E9EC"/>
<path d="M401.718 193.824C404.784 193.824 406.317 198.423 406.317 198.423C406.35 198.518 413.216 218.524 413.216 244.416C413.215 270.368 406.317 288.108 406.317 288.108C406.302 288.152 404.769 292.707 401.718 292.707C397.995 292.706 394.819 288.983 392.191 281.538C389.563 274.091 383.321 270.368 373.466 270.368L251.569 270.043L126.907 270.368C117.052 270.368 110.81 274.091 108.181 281.538C105.553 288.984 102.378 292.706 98.655 292.707C95.6017 292.707 94.0682 288.146 94.0554 288.108C94.0554 288.108 87.1571 270.368 87.157 244.416C87.157 218.532 94.019 198.529 94.0554 198.423C94.0554 198.423 95.5889 193.824 98.655 193.824C102.378 193.824 105.553 197.547 108.181 204.994C110.81 212.44 117.052 216.163 126.907 216.163H373.466C383.321 216.163 389.563 212.44 392.191 204.994C394.819 197.548 397.995 193.824 401.718 193.824Z" fill="#E6E9EC"/>
</svg>
